<svg width="48" height="18" viewBox="0 0 48 18" fill="none" xmlns="http://www.w3.org/2000/svg">
<rect x="1" y="0.5" width="46" height="17" rx="8.5" fill="#FBEBEA"/>
<path d="M9.91335 13H8.74858L11.3658 5.72727H12.6335L15.2507 13H14.0859L12.0298 7.0483H11.973L9.91335 13ZM10.1087 10.152H13.8871V11.0753H10.1087V10.152ZM18.1697 13.1065C17.7294 13.1065 17.3364 12.9941 16.9908 12.7692C16.6475 12.5419 16.3776 12.2187 16.1811 11.7997C15.987 11.3783 15.8899 10.8729 15.8899 10.2834C15.8899 9.69389 15.9882 9.18963 16.1847 8.7706C16.3835 8.35156 16.6558 8.03078 17.0014 7.80824C17.3471 7.5857 17.7389 7.47443 18.1768 7.47443C18.5154 7.47443 18.7876 7.53125 18.9936 7.64489C19.2019 7.75616 19.3629 7.88636 19.4766 8.03551C19.5926 8.18466 19.6825 8.31605 19.7464 8.42969H19.8104V5.72727H20.8722V13H19.8352V12.1513H19.7464C19.6825 12.2673 19.5902 12.3999 19.4695 12.549C19.3511 12.6982 19.1877 12.8284 18.9794 12.9396C18.7711 13.0509 18.5012 13.1065 18.1697 13.1065ZM18.4041 12.201C18.7095 12.201 18.9676 12.1205 19.1783 11.9595C19.3913 11.7962 19.5523 11.5701 19.6612 11.2812C19.7725 10.9924 19.8281 10.6562 19.8281 10.2727C19.8281 9.89394 19.7737 9.5625 19.6648 9.27841C19.5559 8.99432 19.3961 8.77296 19.1854 8.61435C18.9747 8.45573 18.7143 8.37642 18.4041 8.37642C18.0845 8.37642 17.8182 8.45928 17.6051 8.625C17.392 8.79072 17.2311 9.01681 17.1222 9.30327C17.0156 9.58973 16.9624 9.91288 16.9624 10.2727C16.9624 10.6373 17.0168 10.9652 17.1257 11.2564C17.2346 11.5476 17.3956 11.7784 17.6087 11.9489C17.8241 12.117 18.0893 12.201 18.4041 12.201ZM22.3876 13V7.54545H23.4068V8.43324H23.4743C23.5879 8.13258 23.7737 7.8982 24.0318 7.73011C24.2898 7.55966 24.5988 7.47443 24.9586 7.47443C25.3232 7.47443 25.6286 7.55966 25.8748 7.73011C26.1234 7.90057 26.3069 8.13494 26.4252 8.43324H26.4821C26.6123 8.14205 26.8194 7.91004 27.1035 7.73722C27.3876 7.56203 27.7261 7.47443 28.1191 7.47443C28.6139 7.47443 29.0176 7.6295 29.3301 7.93963C29.6449 8.24976 29.8024 8.71733 29.8024 9.34233V13H28.7406V9.44176C28.7406 9.07244 28.64 8.80492 28.4387 8.6392C28.2375 8.47348 27.9972 8.39062 27.7179 8.39062C27.3722 8.39062 27.1035 8.49716 26.9118 8.71023C26.72 8.92093 26.6241 9.192 26.6241 9.52344V13H25.5659V9.37429C25.5659 9.07836 25.4735 8.84044 25.2889 8.66051C25.1042 8.48059 24.8639 8.39062 24.568 8.39062C24.3668 8.39062 24.1809 8.44389 24.0105 8.55043C23.8424 8.65459 23.7063 8.80019 23.6021 8.98722C23.5003 9.17424 23.4494 9.39086 23.4494 9.63707V13H22.3876ZM31.2255 13V7.54545H32.2873V13H31.2255ZM31.7617 6.70384C31.5771 6.70384 31.4184 6.64228 31.2859 6.51918C31.1557 6.3937 31.0906 6.24455 31.0906 6.07173C31.0906 5.89654 31.1557 5.7474 31.2859 5.62429C31.4184 5.49882 31.5771 5.43608 31.7617 5.43608C31.9464 5.43608 32.1038 5.49882 32.234 5.62429C32.3666 5.7474 32.4329 5.89654 32.4329 6.07173C32.4329 6.24455 32.3666 6.3937 32.234 6.51918C32.1038 6.64228 31.9464 6.70384 31.7617 6.70384ZM34.7775 9.76136V13H33.7157V7.54545H34.7349V8.43324H34.8024C34.9279 8.14441 35.1243 7.91241 35.3919 7.73722C35.6618 7.56203 36.0015 7.47443 36.411 7.47443C36.7827 7.47443 37.1083 7.55256 37.3876 7.70881C37.667 7.86269 37.8836 8.09233 38.0375 8.39773C38.1913 8.70312 38.2683 9.08073 38.2683 9.53054V13H37.2065V9.65838C37.2065 9.26302 37.1035 8.95407 36.8975 8.73153C36.6916 8.50663 36.4087 8.39418 36.0488 8.39418C35.8026 8.39418 35.5836 8.44744 35.3919 8.55398C35.2025 8.66051 35.0521 8.81676 34.9409 9.02273C34.832 9.22633 34.7775 9.47254 34.7775 9.76136Z" fill="#D63500"/>
<rect x="1" y="0.5" width="46" height="17" rx="8.5" stroke="#D63500"/>
</svg>
